<?xml version="1.0" encoding="UTF-8" standalone="no"?>
<svg
   width="512"
   height="512"
   version="1"
   viewBox="360 0 512 512"
   id="svg5"
   sodipodi:docname="emblem.svg"
   xml:space="preserve"
   inkscape:version="1.3.2 (091e20e, 2023-11-25)"
   inkscape:export-filename="emblem_512x512.png"
   inkscape:export-xdpi="96"
   inkscape:export-ydpi="96"
   xmlns:inkscape="http://www.inkscape.org/namespaces/inkscape"
   xmlns:sodipodi="http://sodipodi.sourceforge.net/DTD/sodipodi-0.dtd"
   xmlns="http://www.w3.org/2000/svg"
   xmlns:svg="http://www.w3.org/2000/svg"
   xmlns:rdf="http://www.w3.org/1999/02/22-rdf-syntax-ns#"
   xmlns:cc="http://creativecommons.org/ns#"
   xmlns:dc="http://purl.org/dc/elements/1.1/"><defs
     id="defs5" /><sodipodi:namedview
     id="namedview5"
     pagecolor="#ffffff"
     bordercolor="#666666"
     borderopacity="1.0"
     inkscape:showpageshadow="2"
     inkscape:pageopacity="0.0"
     inkscape:pagecheckerboard="0"
     inkscape:deskcolor="#d1d1d1"
     inkscape:zoom="0.91699219"
     inkscape:cx="-83.42492"
     inkscape:cy="271.53994"
     inkscape:window-width="3840"
     inkscape:window-height="2056"
     inkscape:window-x="0"
     inkscape:window-y="0"
     inkscape:window-maximized="1"
     inkscape:current-layer="svg5" /><metadata
     id="metadata1"><rdf:RDF><cc:Work
         rdf:about=""><dc:format>image/svg+xml</dc:format><dc:type
           rdf:resource="http://purl.org/dc/dcmitype/StillImage" /></cc:Work></rdf:RDF></metadata><path
     fill="#333333"
     d="M 856,94.553021 C 856,43.5304 732.3448,16 615.99904,16 499.65389,16 376,43.5304 376,94.553021 v 0.0012 0 324.416639 c 0,51.02395 123.65389,78.55494 239.99904,78.55494 C 732.3448,497.52579 856,469.99507 856,418.97085 v -324.416638 0 z M 839.12637,337.39282 c 0,14.26647 -23.1143,29.78364 -61.83102,41.50655 -42.96618,13.01081 -100.24938,20.17504 -161.29631,20.17504 -61.04711,0 -118.32848,-7.16423 -161.29436,-20.17504 -38.71653,-11.72291 -61.83136,-27.24008 -61.83136,-41.50655 v -51.10568 c 37.70133,31.41902 132.61984,48.08334 223.12572,48.08334 90.50777,0 185.42517,-16.66405 223.12733,-48.08334 z m 0,-81.57757 c 0,14.26682 -23.1143,29.78274 -61.83102,41.50641 -42.96618,13.01041 -100.24938,20.17511 -161.29631,20.17511 -61.04711,0 -118.32848,-7.1647 -161.29436,-20.17511 -38.71653,-11.72367 -61.83136,-27.23959 -61.83136,-41.50641 v -51.10727 c 37.70133,31.41901 132.61984,48.08335 223.12572,48.08335 90.50777,0 185.42517,-16.66434 223.12733,-48.08335 z m 0,-81.57932 c 0,14.2669 -23.1143,29.78352 -61.83102,41.50651 -42.96618,13.01085 -100.24938,20.17509 -161.29631,20.17509 -61.04711,0 -118.32848,-7.16424 -161.29436,-20.17509 -38.71653,-11.72299 -61.83136,-27.23961 -61.83136,-41.50651 v -49.21076 c 37.70133,31.41893 132.61984,48.08341 223.12572,48.08341 90.50777,0 185.42517,-16.66448 223.12733,-48.08369 z M 454.70468,53.048037 c 42.96588,-13.009688 100.24725,-20.174165 161.29436,-20.174165 61.04693,0 118.33013,7.164477 161.29631,20.174165 38.71672,11.724394 61.83102,27.239779 61.83102,41.505248 0,14.266515 -23.1143,29.782145 -61.83102,41.506445 -42.96618,13.01069 -100.24938,20.17464 -161.29631,20.17464 -61.04711,0 -118.32848,-7.1642 -161.29436,-20.17464 -38.71653,-11.7243 -61.83136,-27.24021 -61.83136,-41.506445 0,-14.265469 23.11483,-29.780854 61.83136,-41.505248 z M 777.29535,460.4771 c -42.96618,13.01088 -100.24938,20.17569 -161.29631,20.17569 -61.04711,0 -118.32848,-7.16481 -161.29436,-20.17569 -38.71653,-11.72275 -61.83136,-27.23917 -61.83136,-41.50581 v -51.10666 c 37.70133,31.41991 132.61984,48.084 223.12572,48.084 90.50777,0 185.42517,-16.66382 223.12733,-48.084 v 51.10666 c 0,14.26664 -23.1143,29.78306 -61.83102,41.50581 z"
     id="path1-3"
     style="stroke-width:0.268091" /><path
     fill="#000000"
     fill-rule="evenodd"
     d="M 593.74127,371.01815 711.02292,221.75046 c 5.2104,-6.63107 2.70451,-12.10761 -5.69521,-12.10761 h -74.4443 L 712.42225,79.180891 c 4.48838,-7.181889 1.22328,-12.982755 -7.27668,-12.982755 H 602.68463 c -4.3053,0 -8.7311,3.205187 -10.04899,7.158977 L 528.117,266.91338 c -2.67063,8.01231 1.99284,14.45183 10.39303,14.45183 h 56.51194 l -35.86093,89.65294 h -45.30842 c -4.97317,0 -6.98485,3.45932 -4.52368,7.67556 l 32.90746,56.37125 c 2.47481,4.2391 8.1046,5.6064 12.33788,3.189 l 102.09521,-58.29714 c 8.6459,-4.93667 7.57651,-8.93867 -2.26865,-8.93867 z"
     id="path1"
     style="fill:#ffffff;fill-opacity:1;stroke:#333333;stroke-width:17.9307;stroke-opacity:1" /></svg>
