<?xml version="1.0" encoding="UTF-8" standalone="no"?>
<svg
   height="512"
   width="1024"
   version="1"
   viewBox="360 0 1024 512"
   id="svg59"
   sodipodi:docname="logo.svg"
   inkscape:version="1.3.2 (091e20e, 2023-11-25)"
   inkscape:export-filename="logo.png"
   inkscape:export-xdpi="96"
   inkscape:export-ydpi="96"
   xmlns:inkscape="http://www.inkscape.org/namespaces/inkscape"
   xmlns:sodipodi="http://sodipodi.sourceforge.net/DTD/sodipodi-0.dtd"
   xmlns="http://www.w3.org/2000/svg"
   xmlns:svg="http://www.w3.org/2000/svg"
   xmlns:rdf="http://www.w3.org/1999/02/22-rdf-syntax-ns#"
   xmlns:cc="http://creativecommons.org/ns#"
   xmlns:dc="http://purl.org/dc/elements/1.1/">
  <defs
     id="defs1" />
  <sodipodi:namedview
     id="namedview1"
     pagecolor="#ffffff"
     bordercolor="#666666"
     borderopacity="1.0"
     inkscape:showpageshadow="2"
     inkscape:pageopacity="0.0"
     inkscape:pagecheckerboard="0"
     inkscape:deskcolor="#d1d1d1"
     inkscape:zoom="1.7463604"
     inkscape:cx="586.07604"
     inkscape:cy="294.89903"
     inkscape:window-width="3840"
     inkscape:window-height="2056"
     inkscape:window-x="0"
     inkscape:window-y="0"
     inkscape:window-maximized="1"
     inkscape:current-layer="svg59"
     inkscape:export-bgcolor="#ffffff00" />
  <metadata
     id="metadata2">
    <rdf:RDF>
      <cc:Work
         rdf:about="">
        <dc:format>image/svg+xml</dc:format>
        <dc:type
           rdf:resource="http://purl.org/dc/dcmitype/StillImage" />
      </cc:Work>
    </rdf:RDF>
  </metadata>
  <rect
     style="fill:#ffffff;fill-opacity:1;fill-rule:evenodd;stroke:#333333;stroke-width:5;stroke-linecap:round;stroke-linejoin:round;stroke-dasharray:none;stroke-dashoffset:6.3;stroke-opacity:1;paint-order:fill markers stroke"
     id="rect14"
     width="1019"
     height="507"
     x="362.5"
     y="2.5"
     inkscape:label="bg"
     ry="98.796371"
     rx="98.796364" />
  <path
     fill="#333333"
     d="M 856,94.55302 C 856,43.5304 732.3448,16 615.99904,16 499.65389,16 376,43.5304 376,94.55302 v 10e-4 0 324.41664 c 0,51.02395 123.65389,78.55494 239.99904,78.55494 C 732.3448,497.52579 856,469.99507 856,418.97085 v -324.41664 0 z m -16.8736,242.8398 c 0,14.26647 -23.1143,29.78364 -61.8311,41.50655 -42.96613,13.01081 -100.24933,20.17504 -161.29626,20.17504 -61.04711,0 -118.32848,-7.16423 -161.29436,-20.17504 -38.71653,-11.72291 -61.83136,-27.24008 -61.83136,-41.50655 v -51.10568 c 37.70133,31.41902 132.61984,48.08334 223.12572,48.08334 90.50777,0 185.42516,-16.66405 223.12736,-48.08334 z m 0,-81.57757 c 0,14.26682 -23.1143,29.78274 -61.8311,41.50641 -42.96613,13.01041 -100.24933,20.17511 -161.29626,20.17511 -61.04711,0 -118.32848,-7.1647 -161.29436,-20.17511 -38.71653,-11.72367 -61.83136,-27.23959 -61.83136,-41.50641 v -51.10727 c 37.70133,31.41901 132.61984,48.08335 223.12572,48.08335 90.50777,0 185.42516,-16.66434 223.12736,-48.08335 z m 0,-81.57932 c 0,14.2669 -23.1143,29.78352 -61.8311,41.50651 -42.96613,13.01085 -100.24933,20.17509 -161.29626,20.17509 -61.04711,0 -118.32848,-7.16424 -161.29436,-20.17509 -38.71653,-11.72299 -61.83136,-27.23961 -61.83136,-41.50651 v -49.21076 c 37.70133,31.41893 132.61984,48.08341 223.12572,48.08341 90.50777,0 185.42516,-16.66448 223.12736,-48.08369 z M 454.70468,53.04804 c 42.96588,-13.00969 100.24725,-20.17417 161.29436,-20.17417 61.04693,0 118.33013,7.16448 161.29636,20.17417 38.7167,11.72439 61.831,27.23978 61.831,41.50525 0,14.26651 -23.1143,29.78214 -61.831,41.50644 -42.96623,13.01069 -100.24943,20.17464 -161.29636,20.17464 -61.04711,0 -118.32848,-7.1642 -161.29436,-20.17464 -38.71653,-11.7243 -61.83136,-27.24021 -61.83136,-41.50644 0,-14.26547 23.11483,-29.78086 61.83136,-41.50525 z M 777.2953,460.4771 c -42.96613,13.01088 -100.24933,20.17569 -161.29626,20.17569 -61.04711,0 -118.32848,-7.16481 -161.29436,-20.17569 -38.71653,-11.72275 -61.83136,-27.23917 -61.83136,-41.50581 v -51.10666 c 37.70133,31.41991 132.61984,48.084 223.12572,48.084 90.50777,0 185.42516,-16.66382 223.12736,-48.084 v 51.10666 c 0,14.26664 -23.1143,29.78306 -61.8311,41.50581 z"
     id="path1-3"
     style="stroke-width:0.268091" />
  <path
     d="m 907.38137,102.32333 h -19.82976 v 32.27091 h 18.25425 v 6.79102 h -18.25425 v 39.27923 H 880 V 95.640974 h 27.38137 z m 39.44222,78.34116 h -7.11698 v -1.46686 q -4.29192,0.59761 -8.58385,1.14089 -5.32415,0.65194 -8.52951,0.65194 -5.92177,0 -5.92177,-5.86744 v -19.28648 q 0,-6.08475 6.13908,-6.08475 h 17.0047 v -15.91814 h -15.53784 v 9.01846 h -7.00833 v -8.90981 q 0,-6.13908 6.08475,-6.13908 h 17.385 q 6.08475,0 6.08475,6.13908 z m -7.00833,-6.5737 v -18.68888 h -16.13545 v 19.01485 z m 47.3198,0.43462 q 0,6.13908 -6.13907,6.13908 h -16.57008 q -6.13908,0 -6.13908,-6.13908 V 162.5189 h 7.11698 v 11.89786 h 14.61427 V 163.8771 l -18.90619,-15.48352 q -2.7164,-2.17312 -2.7164,-5.65012 v -8.80116 q 0,-6.13908 6.13907,-6.13908 h 16.35277 q 6.13908,0 6.13908,6.13908 v 10.53966 h -7.00833 v -10.431 h -14.61427 v 9.23578 l 19.06918,15.48352 q 2.66207,2.11879 2.66207,5.75878 z m 30.47804,6.13908 h -10.268 q -6.0847,0 -6.0847,-6.13908 v -40.3658 h -6.35642 v -6.35639 h 6.35642 V 111.3418 h 7.117 v 16.46142 h 9.2357 v 6.35639 h -9.2357 v 40.14849 h 9.2357 z m 66.9323,-15.37486 q 0,6.73669 -4.4549,11.08294 -4.4006,4.29192 -11.1373,4.29192 h -19.4494 V 95.640974 h 19.4494 q 6.791,0 11.1916,4.34625 4.4006,4.291926 4.4006,11.028606 z m -7.5516,-0.76059 v -52.86127 q 0,-4.18326 -2.6621,-6.73669 -2.6077,-2.60775 -6.791,-2.60775 h -10.4853 v 71.6588 h 10.0507 q 4.4005,0 7.117,-2.49909 2.7707,-2.55343 2.7707,-6.954 z m 49.8189,16.13545 h -7.117 v -1.46686 q -4.2919,0.59761 -8.5839,1.14089 -5.3241,0.65194 -8.5295,0.65194 -5.9217,0 -5.9217,-5.86744 v -19.28648 q 0,-6.08475 6.139,-6.08475 h 17.0047 v -15.91814 h -15.5378 v 9.01846 h -7.0083 v -8.90981 q 0,-6.13908 6.0847,-6.13908 h 17.385 q 6.0848,0 6.0848,6.13908 z m -7.0084,-6.5737 v -18.68888 h -16.1354 v 19.01485 z m 37.8667,6.5737 h -10.268 q -6.0847,0 -6.0847,-6.13908 v -40.3658 h -6.3564 v -6.35639 h 6.3564 V 111.3418 h 7.117 v 16.46142 h 9.2357 v 6.35639 h -9.2357 v 40.14849 h 9.2357 z m 39.1163,0 h -7.117 v -1.46686 q -4.2919,0.59761 -8.5838,1.14089 -5.3242,0.65194 -8.5296,0.65194 -5.9217,0 -5.9217,-5.86744 v -19.28648 q 0,-6.08475 6.139,-6.08475 h 17.0048 v -15.91814 h -15.5379 v 9.01846 h -7.0083 v -8.90981 q 0,-6.13908 6.0847,-6.13908 h 17.385 q 6.0848,0 6.0848,6.13908 z m -7.0083,-6.5737 v -18.68888 h -16.1355 v 19.01485 z m 49.2212,-4.78088 q 0,4.88953 -3.2053,8.14922 -3.2054,3.20536 -8.0406,3.20536 h -19.1235 V 95.640974 h 7.2257 v 33.629106 q 4.2919,-0.54328 8.5838,-1.08656 5.4328,-0.70626 8.5295,-0.70626 6.0304,0 6.0304,5.92176 z m -7.2256,-1.08656 v -33.95508 l -15.9181,0.43463 v 39.6052 h 9.9963 q 5.9218,0 5.9218,-6.08475 z m 48.8953,12.44114 h -7.117 v -1.46686 q -4.2919,0.59761 -8.5838,1.14089 -5.3242,0.65194 -8.5295,0.65194 -5.9218,0 -5.9218,-5.86744 v -19.28648 q 0,-6.08475 6.1391,-6.08475 h 17.0047 v -15.91814 h -15.5379 v 9.01846 h -7.0083 v -8.90981 q 0,-6.13908 6.0848,-6.13908 h 17.385 q 6.0847,0 6.0847,6.13908 z m -7.0083,-6.5737 v -18.68888 h -16.1355 v 19.01485 z m 47.3198,0.43462 q 0,6.13908 -6.1391,6.13908 h -16.5701 q -6.1391,0 -6.1391,-6.13908 V 162.5189 h 7.117 v 11.89786 h 14.6143 V 163.8771 l -18.9062,-15.48352 q -2.7164,-2.17312 -2.7164,-5.65012 v -8.80116 q 0,-6.13908 6.1391,-6.13908 h 16.3527 q 6.1391,0 6.1391,6.13908 v 10.53966 h -7.0083 v -10.431 h -14.6143 v 9.23578 l 19.0692,15.48352 q 2.6621,2.11879 2.6621,5.75878 z m 41.0177,0 q 0,6.13908 -6.0847,6.13908 h -17.385 q -6.0848,0 -6.0848,-6.13908 V 133.9423 q 0,-6.13908 6.0848,-6.13908 h 17.385 q 6.0847,0 6.0847,6.13908 v 19.01485 l -2.4447,2.55342 h -20.1014 v 19.1235 h 15.5378 v -9.67041 h 7.0083 z m -7.0083,-24.77362 v -15.91814 h -15.5378 v 15.91814 z"
     id="text1"
     style="font-size:111.264px;line-height:1.25;font-family:'Agency FB';-inkscape-font-specification:'Agency FB, Normal';stroke-width:0.468318;fill:#333333;fill-opacity:1"
     aria-label="Fast Database"
     inkscape:label="text1" />
  <path
     d="m 938.60775,358.69073 q 0,10.80017 -7.14205,17.76802 -7.05495,6.88076 -17.85512,6.88076 h -31.18114 v -136.3086 h 31.18114 q 10.88727,0 17.94222,6.96785 7.05495,6.88076 7.05495,17.68093 z m -12.10665,-1.21937 v -84.74649 q 0,-6.70656 -4.2678,-10.80017 -4.18072,-4.18072 -10.88727,-4.18072 h -16.80994 v 114.88246 h 16.11315 q 7.05495,0 11.40986,-4.00652 4.442,-4.09361 4.442,-11.14856 z m 79.3464,16.02606 q 0,9.84209 -9.75498,9.84209 h -27.8714 q -9.75499,0 -9.75499,-9.84209 V 308.4351 q 0,-9.84209 9.75499,-9.84209 h 27.8714 q 9.75498,0 9.75498,9.84209 v 30.48435 l -3.9194,4.09362 h -32.22631 v 30.65854 h 24.91006 v -15.50347 h 11.23565 z m -11.23565,-39.71676 v -25.51975 h -24.91006 v 25.51975 z M 1073.697,365.136 q 0,7.83883 -5.1388,13.06472 -5.1388,5.13879 -12.8905,5.13879 h -19.0745 v 32.13921 h -11.5841 V 298.59301 h 11.5841 v 2.35165 q 6.8807,-0.87098 13.7615,-1.74196 8.7098,-1.13227 13.6744,-1.13227 9.6679,0 9.6679,9.49369 z m -11.5841,-1.74197 v -54.43634 l -25.5197,0.69679 v 63.49455 h 16.026 q 9.4937,0 9.4937,-9.755 z m 42.2426,19.94548 h -11.4098 v -136.3086 h 11.4098 z m 68.3721,-9.84209 q 0,9.84209 -9.8421,9.84209 h -29.0908 q -9.755,0 -9.755,-9.84209 V 308.4351 q 0,-9.84209 9.755,-9.84209 h 29.0908 q 9.8421,0 9.8421,9.84209 z m -11.5841,-0.34839 V 308.7835 h -25.5197 v 64.36553 z m 78.2141,-74.55602 -20.3809,84.04971 -8.4485,32.836 h -11.4099 l 8.5356,-32.836 -20.9035,-84.04971 h 11.9324 l 14.4583,66.71718 14.6325,-66.71718 z m 61.5784,74.90441 q 0,9.84209 -9.755,9.84209 h -27.8714 q -9.755,0 -9.755,-9.84209 V 308.4351 q 0,-9.84209 9.755,-9.84209 h 27.8714 q 9.755,0 9.755,9.84209 v 30.48435 l -3.9194,4.09362 h -32.2263 v 30.65854 h 24.9101 v -15.50347 h 11.2356 z m -11.2356,-39.71676 v -25.51975 h -24.9101 v 25.51975 z m 74.7302,-7.31624 h -11.4099 v -17.50673 l -21.339,0.69679 v 73.68503 h -11.5841 v -84.7465 h 11.5841 v 2.35165 q 5.7484,-0.87098 11.584,-1.82906 6.9679,-1.04517 11.5841,-1.04517 9.5808,0 9.5808,9.49369 z"
     id="text3"
     style="font-size:178.377px;line-height:1.25;font-family:'Agency FB';-inkscape-font-specification:'Agency FB, Normal';stroke-width:9.051;fill:#333333;fill-opacity:1;stroke-dasharray:none"
     aria-label="Deployer"
     inkscape:label="text2" />
  <path
     style="fill:#ffffff;fill-opacity:1;fill-rule:evenodd;stroke:#008080;stroke-width:0.0809806;stroke-linejoin:round;stroke-dashoffset:6.3"
     d="M 220.38742,155.08846 C 163.24548,151.99845 114.0538,143.33463 78.995369,130.18599 50.785288,119.60582 33.273675,106.04628 33.227752,94.747331 33.201921,88.391838 40.941211,78.742738 51.463287,72.011848 58.330219,67.619125 72.59153,61.04433 83.410044,57.283653 114.0277,46.640495 150.06752,39.750679 197.59272,35.455081 c 22.76349,-2.057493 93.84862,-2.057493 116.6121,0 60.26821,5.447383 104.09205,15.365795 134.83274,30.515959 23.86158,11.759876 33.55646,23.837368 27.95249,34.82206 -11.29922,22.1483 -66.49732,42.0067 -140.7156,50.62469 -30.35756,3.52502 -85.99278,5.28724 -115.88703,3.67067 z"
     id="path9"
     transform="translate(360)" />
  <path
     style="fill:#ffffff;fill-opacity:1;fill-rule:evenodd;stroke:#008080;stroke-width:0.0809806;stroke-linejoin:round;stroke-dashoffset:6.3"
     d="M 214.19375,234.38747 C 122.47094,228.97935 48.173433,206.66578 35.198289,180.63024 c -1.993945,-4.00099 -1.996233,-4.03462 -1.996233,-29.3538 v -25.34822 l 5.061289,3.73784 c 7.721455,5.70242 27.64702,15.05725 42.71728,20.05528 56.725135,18.81281 140.271775,27.25676 220.672205,22.30305 76.22529,-4.69647 140.0146,-20.26586 171.11037,-41.76379 2.80504,-1.93926 5.27916,-3.52592 5.49804,-3.52592 0.21887,0 0.29252,11.7998 0.16365,26.22177 l -0.2343,26.22178 -3.15534,4.57983 c -9.02626,13.1012 -37.3394,26.78236 -74.58606,36.04065 -30.33547,7.54039 -63.14441,12.15399 -104.0601,14.63294 -15.15828,0.91838 -66.33654,0.89088 -82.19534,-0.0442 z"
     id="path10"
     transform="translate(360)" />
  <path
     style="fill:#ffffff;fill-opacity:1;fill-rule:evenodd;stroke:#008080;stroke-width:0.0809806;stroke-linejoin:round;stroke-dashoffset:6.3"
     d="M 217.43298,316.19108 C 154.12116,312.67627 98.837637,301.52661 65.053296,285.45893 c -16.31594,-7.75979 -26.025607,-15.24 -29.802345,-22.95938 l -2.071782,-4.23457 0.213895,-26.0633 0.213895,-26.0633 5.263741,3.69771 c 12.616218,8.86271 39.478736,19.83093 64.00478,26.13377 71.40964,18.35123 174.68633,22.26648 257.0834,9.74611 50.77968,-7.71606 89.37381,-19.9233 112.65291,-35.63187 l 5.9837,-4.03777 v 26.37031 26.3703 l -1.98211,3.91151 c -4.15801,8.20544 -17.13195,17.61883 -34.59196,25.0986 -32.50581,13.92532 -77.02014,23.01757 -135.50975,27.67851 -14.2364,1.13446 -73.02604,1.60669 -89.07869,0.71552 z"
     id="path11"
     transform="translate(360)" />
  <path
     style="fill:#ffffff;fill-opacity:1;fill-rule:evenodd;stroke:#008080;stroke-width:0.0809806;stroke-linejoin:round;stroke-dashoffset:6.3"
     d="M 230.79478,398.34795 C 181.4134,396.02442 144.7922,391.29602 111.34836,382.92547 73.18087,373.37265 45.570232,359.89326 36.644588,346.45542 l -3.037629,-4.57325 -0.242554,-27.42084 -0.242554,-27.42085 4.260679,3.22479 c 14.175012,10.72866 44.591889,22.73867 74.9372,29.58872 83.57295,18.86548 189.32923,19.79254 275.98237,2.41928 35.10921,-7.03912 65.79569,-18.11297 83.81494,-30.24638 l 6.07355,-4.08967 0.21375,25.94838 c 0.19868,24.11946 0.10388,26.19674 -1.345,29.47218 -5.33288,12.05588 -28.08311,25.43925 -59.2535,34.85731 -31.68065,9.57224 -69.74404,15.868 -114.9383,19.01104 -12.23779,0.85107 -61.52317,1.6182 -72.07276,1.12182 z"
     id="path12"
     transform="translate(360)" />
  <path
     style="fill:#ffffff;fill-opacity:1;fill-rule:evenodd;stroke:#008080;stroke-width:0.0809806;stroke-linejoin:round;stroke-dashoffset:6.3"
     d="M 230.79478,479.78215 C 161.79695,477.41673 100.91489,465.89669 64.257944,448.27024 48.162563,440.53079 38.825888,433.12537 35.106018,425.14828 c -1.853929,-3.97567 -1.888283,-4.52072 -1.896051,-30.08231 l -0.0079,-26.03328 6.637408,4.44267 c 35.892741,24.02438 106.880925,39.56024 193.406775,42.32734 73.33233,2.34516 146.41146,-6.21118 197.57068,-23.13223 14.76792,-4.88452 36.49804,-15.128 43.52709,-20.51846 l 4.25148,-3.2604 v 26.33228 c 0,21.46286 -0.2225,26.86481 -1.20322,29.21202 -9.64745,23.08958 -72.32731,44.8143 -151.44525,52.4906 -27.96091,2.71287 -66.00895,3.85474 -95.15224,2.85564 z"
     id="path13"
     transform="translate(360)" />
  <path
     fill="#000000"
     fill-rule="evenodd"
     d="m 594.37692,373.78532 117.2816,-149.26769 c 5.2104,-6.63108 2.7045,-12.10762 -5.6952,-12.10762 h -74.4443 L 713.05792,81.9481 c 4.4883,-7.18189 1.2232,-12.98275 -7.2767,-12.98275 h -102.461 c -4.3053,0 -8.7311,3.20518 -10.0489,7.15897 l -64.5187,193.55623 c -2.6706,8.01231 1.9929,14.45183 10.393,14.45183 h 56.512 l -35.8609,89.65294 h -45.3085 c -4.9731,0 -6.9848,3.45932 -4.5236,7.67556 l 32.9074,56.37124 c 2.4748,4.2391 8.1046,5.6064 12.3379,3.189 l 102.0952,-58.29713 c 8.6459,-4.93667 7.5765,-8.93867 -2.2686,-8.93867 z"
     id="path1"
     style="fill:#ffffff;fill-opacity:1;stroke:#333333;stroke-width:17.9307;stroke-opacity:1"
     inkscape:label="Flash" />
</svg>
